<svg xmlns="http://www.w3.org/2000/svg" xmlns:xlink="http://www.w3.org/1999/xlink" width="170" zoomAndPan="magnify" viewBox="0 0 127.5 127.499994" height="170" preserveAspectRatio="xMidYMid meet" version="1.0"><defs><clipPath id="d8bd2784b7"><path d="M 4.589844 4.589844 L 122.875 4.589844 L 122.875 122.875 L 4.589844 122.875 Z M 4.589844 4.589844 " clip-rule="nonzero"/></clipPath><clipPath id="f066455cf1"><path d="M 63.734375 4.589844 C 31.070312 4.589844 4.589844 31.070312 4.589844 63.734375 C 4.589844 96.398438 31.070312 122.875 63.734375 122.875 C 96.398438 122.875 122.875 96.398438 122.875 63.734375 C 122.875 31.070312 96.398438 4.589844 63.734375 4.589844 Z M 63.734375 4.589844 " clip-rule="nonzero"/></clipPath><clipPath id="bc74913504"><path d="M 0.589844 0.589844 L 118.875 0.589844 L 118.875 118.875 L 0.589844 118.875 Z M 0.589844 0.589844 " clip-rule="nonzero"/></clipPath><clipPath id="c171291751"><path d="M 59.734375 0.589844 C 27.070312 0.589844 0.589844 27.070312 0.589844 59.734375 C 0.589844 92.398438 27.070312 118.875 59.734375 118.875 C 92.398438 118.875 118.875 92.398438 118.875 59.734375 C 118.875 27.070312 92.398438 0.589844 59.734375 0.589844 Z M 59.734375 0.589844 " clip-rule="nonzero"/></clipPath><clipPath id="ba0b5ef260"><rect x="0" width="119" y="0" height="119"/></clipPath><clipPath id="e2c90da5a7"><path d="M 24.660156 24.660156 L 103 24.660156 L 103 103 L 24.660156 103 Z M 24.660156 24.660156 " clip-rule="nonzero"/></clipPath></defs><g clip-path="url(#d8bd2784b7)"><g clip-path="url(#f066455cf1)"><g transform="matrix(1, 0, 0, 1, 4, 4)"><g clip-path="url(#ba0b5ef260)"><g clip-path="url(#bc74913504)"><g clip-path="url(#c171291751)"><path fill="#404040" d="M 0.589844 0.589844 L 118.875 0.589844 L 118.875 118.875 L 0.589844 118.875 Z M 0.589844 0.589844 " fill-opacity="1" fill-rule="nonzero"/></g></g></g></g></g></g><g clip-path="url(#e2c90da5a7)"><path fill="#ffffff" d="M 75.554688 97.078125 C 77.140625 95.386719 78.609375 93.332031 79.933594 90.949219 C 80.996094 89.027344 81.933594 86.9375 82.738281 84.722656 C 86.21875 84.351562 89.695312 83.882812 93.167969 83.308594 C 92.582031 84.183594 91.964844 85.035156 91.308594 85.851562 C 91.320312 85.855469 91.328125 85.855469 91.339844 85.859375 C 87.269531 90.9375 81.824219 94.863281 75.554688 97.078125 Z M 51.90625 30.398438 C 50.320312 32.089844 48.851562 34.140625 47.527344 36.527344 C 46.464844 38.449219 45.527344 40.539062 44.722656 42.753906 C 41.242188 43.125 37.765625 43.59375 34.292969 44.167969 C 34.878906 43.292969 35.496094 42.441406 36.152344 41.625 C 36.140625 41.621094 36.132812 41.621094 36.121094 41.617188 C 40.191406 36.539062 45.636719 32.613281 51.90625 30.398438 Z M 65.582031 98.917969 L 65.582031 85.71875 C 69.933594 85.675781 74.28125 85.472656 78.621094 85.109375 C 78.039062 86.53125 77.394531 87.882812 76.691406 89.152344 C 73.597656 94.734375 69.707031 98.132812 65.582031 98.917969 Z M 34.296875 83.308594 C 37.765625 83.882812 41.238281 84.351562 44.71875 84.722656 C 45.523438 86.941406 46.460938 89.035156 47.527344 90.957031 C 48.59375 92.878906 49.753906 94.585938 50.996094 96.058594 C 50.996094 96.058594 50.996094 96.054688 50.996094 96.054688 C 51.289062 96.402344 51.585938 96.734375 51.882812 97.054688 C 44.648438 94.472656 38.492188 89.597656 34.296875 83.308594 Z M 61.878906 28.558594 L 61.878906 41.757812 C 57.527344 41.800781 53.179688 42.003906 48.839844 42.367188 C 49.421875 40.945312 50.066406 39.59375 50.769531 38.324219 C 53.863281 32.742188 57.753906 29.34375 61.878906 28.558594 Z M 93.164062 44.167969 C 89.695312 43.59375 86.222656 43.125 82.742188 42.753906 C 81.933594 40.535156 81 38.441406 79.933594 36.519531 C 78.867188 34.597656 77.707031 32.890625 76.464844 31.417969 C 76.464844 31.417969 76.464844 31.417969 76.460938 31.421875 C 76.171875 31.074219 75.875 30.742188 75.578125 30.421875 C 82.8125 33.003906 88.96875 37.878906 93.164062 44.167969 Z M 50.769531 89.152344 C 50.066406 87.882812 49.421875 86.53125 48.839844 85.109375 C 53.179688 85.472656 57.527344 85.675781 61.878906 85.71875 L 61.878906 98.917969 C 57.753906 98.132812 53.863281 94.734375 50.769531 89.152344 Z M 76.691406 38.324219 C 77.394531 39.59375 78.039062 40.945312 78.621094 42.367188 C 74.28125 42.003906 69.933594 41.800781 65.582031 41.757812 L 65.582031 28.558594 C 69.707031 29.34375 73.597656 32.742188 76.691406 38.324219 Z M 65.582031 61.878906 L 65.582031 45.472656 C 70.390625 45.523438 75.195312 45.769531 79.992188 46.214844 C 81.464844 50.972656 82.316406 56.304688 82.472656 61.878906 Z M 61.878906 65.597656 L 61.878906 82.003906 C 57.070312 81.953125 52.265625 81.707031 47.46875 81.261719 C 45.996094 76.503906 45.144531 71.171875 44.988281 65.597656 Z M 82.414062 67.039062 C 82.40625 67.214844 82.398438 67.386719 82.386719 67.5625 C 82.363281 67.960938 82.335938 68.355469 82.308594 68.75 C 82.296875 68.898438 82.285156 69.046875 82.273438 69.195312 C 82.230469 69.71875 82.179688 70.242188 82.125 70.761719 C 82.113281 70.882812 82.09375 71 82.082031 71.121094 C 82.035156 71.515625 81.988281 71.914062 81.933594 72.304688 C 81.90625 72.511719 81.878906 72.71875 81.847656 72.925781 C 81.804688 73.230469 81.757812 73.53125 81.710938 73.835938 C 81.671875 74.058594 81.636719 74.285156 81.597656 74.507812 C 81.550781 74.792969 81.496094 75.078125 81.441406 75.363281 C 81.402344 75.585938 81.363281 75.804688 81.316406 76.023438 C 81.230469 76.46875 81.136719 76.910156 81.035156 77.347656 C 80.976562 77.609375 80.914062 77.871094 80.851562 78.128906 C 80.800781 78.339844 80.75 78.550781 80.695312 78.757812 C 80.628906 79.035156 80.554688 79.304688 80.480469 79.578125 C 80.429688 79.761719 80.378906 79.945312 80.328125 80.132812 C 80.246094 80.414062 80.167969 80.691406 80.085938 80.972656 C 80.054688 81.070312 80.023438 81.164062 79.992188 81.261719 C 75.195312 81.707031 70.390625 81.953125 65.582031 82.003906 L 65.582031 65.597656 L 82.472656 65.597656 C 82.46875 65.679688 82.464844 65.765625 82.460938 65.851562 C 82.449219 66.25 82.433594 66.644531 82.414062 67.039062 Z M 45.046875 60.4375 C 45.054688 60.261719 45.0625 60.085938 45.074219 59.914062 C 45.097656 59.515625 45.125 59.121094 45.152344 58.726562 C 45.164062 58.578125 45.175781 58.429688 45.1875 58.28125 C 45.230469 57.757812 45.28125 57.234375 45.335938 56.714844 C 45.351562 56.59375 45.367188 56.472656 45.378906 56.351562 C 45.425781 55.957031 45.472656 55.5625 45.523438 55.171875 C 45.554688 54.964844 45.582031 54.757812 45.613281 54.550781 C 45.65625 54.246094 45.703125 53.945312 45.75 53.640625 C 45.789062 53.417969 45.824219 53.191406 45.863281 52.96875 C 45.910156 52.683594 45.964844 52.398438 46.019531 52.113281 C 46.058594 51.894531 46.097656 51.671875 46.140625 51.453125 C 46.230469 51.007812 46.324219 50.566406 46.425781 50.128906 C 46.484375 49.867188 46.546875 49.605469 46.609375 49.347656 C 46.660156 49.136719 46.710938 48.925781 46.765625 48.71875 C 46.832031 48.441406 46.90625 48.171875 46.980469 47.898438 C 47.03125 47.714844 47.082031 47.527344 47.132812 47.34375 C 47.214844 47.0625 47.292969 46.785156 47.375 46.503906 C 47.40625 46.40625 47.4375 46.3125 47.46875 46.214844 C 52.265625 45.769531 57.070312 45.523438 61.878906 45.472656 L 61.878906 61.878906 L 44.988281 61.878906 C 44.992188 61.792969 44.996094 61.707031 45 61.621094 C 45.011719 61.226562 45.027344 60.832031 45.046875 60.4375 Z M 98.949219 66.941406 C 98.558594 71.273438 97.378906 75.378906 95.5625 79.121094 C 91.707031 79.824219 87.84375 80.398438 83.972656 80.847656 C 83.992188 80.785156 84.007812 80.71875 84.023438 80.65625 C 84.09375 80.398438 84.167969 80.140625 84.234375 79.875 C 84.3125 79.578125 84.382812 79.273438 84.457031 78.972656 C 84.542969 78.621094 84.625 78.265625 84.703125 77.90625 C 84.765625 77.613281 84.832031 77.316406 84.894531 77.019531 C 84.941406 76.785156 84.988281 76.550781 85.03125 76.3125 C 85.09375 76 85.148438 75.683594 85.207031 75.367188 C 85.242188 75.164062 85.28125 74.960938 85.3125 74.753906 C 85.398438 74.253906 85.472656 73.753906 85.546875 73.246094 C 85.570312 73.082031 85.589844 72.914062 85.613281 72.75 C 85.664062 72.359375 85.714844 71.96875 85.757812 71.574219 C 85.78125 71.390625 85.800781 71.207031 85.820312 71.023438 C 85.867188 70.570312 85.910156 70.117188 85.949219 69.660156 C 85.960938 69.5625 85.96875 69.464844 85.976562 69.367188 C 86.023438 68.808594 86.058594 68.25 86.09375 67.6875 C 86.101562 67.546875 86.105469 67.402344 86.113281 67.261719 C 86.136719 66.816406 86.15625 66.375 86.167969 65.929688 C 86.171875 65.816406 86.175781 65.707031 86.179688 65.597656 L 93.222656 65.597656 C 93.285156 65.597656 93.34375 65.59375 93.402344 65.585938 L 99.042969 65.585938 C 99.019531 65.976562 98.996094 66.363281 98.964844 66.75 C 98.960938 66.816406 98.953125 66.878906 98.949219 66.941406 Z M 98.722656 58.625 C 98.746094 58.777344 98.765625 58.933594 98.789062 59.089844 C 98.820312 59.34375 98.851562 59.601562 98.878906 59.859375 C 98.894531 59.992188 98.910156 60.128906 98.921875 60.261719 C 98.953125 60.558594 98.976562 60.859375 99 61.15625 C 99.007812 61.285156 99.015625 61.414062 99.023438 61.542969 C 99.03125 61.65625 99.035156 61.769531 99.039062 61.878906 L 86.179688 61.878906 C 86.039062 56.515625 85.28125 51.347656 83.972656 46.628906 C 87.84375 47.078125 91.710938 47.652344 95.566406 48.355469 C 95.578125 48.382812 95.59375 48.410156 95.605469 48.4375 C 95.714844 48.664062 95.824219 48.894531 95.929688 49.125 C 95.941406 49.15625 95.957031 49.1875 95.96875 49.21875 C 96.1875 49.695312 96.394531 50.183594 96.589844 50.671875 C 96.597656 50.695312 96.609375 50.71875 96.617188 50.742188 C 96.703125 50.957031 96.785156 51.175781 96.867188 51.390625 C 96.902344 51.488281 96.9375 51.582031 96.972656 51.679688 C 97.050781 51.890625 97.125 52.097656 97.195312 52.308594 C 97.230469 52.40625 97.261719 52.5 97.292969 52.59375 C 97.417969 52.972656 97.535156 53.355469 97.652344 53.738281 C 97.683594 53.851562 97.71875 53.964844 97.75 54.078125 C 97.804688 54.269531 97.855469 54.460938 97.90625 54.652344 C 97.945312 54.796875 97.984375 54.941406 98.019531 55.082031 C 98.066406 55.265625 98.113281 55.453125 98.15625 55.636719 C 98.195312 55.804688 98.230469 55.976562 98.269531 56.144531 C 98.328125 56.410156 98.382812 56.675781 98.433594 56.941406 C 98.476562 57.144531 98.515625 57.351562 98.550781 57.558594 C 98.578125 57.71875 98.605469 57.878906 98.632812 58.042969 C 98.664062 58.234375 98.691406 58.429688 98.722656 58.625 Z M 28.511719 60.535156 C 28.902344 56.203125 30.082031 52.097656 31.898438 48.355469 C 35.753906 47.652344 39.617188 47.078125 43.488281 46.628906 C 43.46875 46.691406 43.453125 46.753906 43.4375 46.816406 C 43.367188 47.078125 43.292969 47.335938 43.226562 47.601562 C 43.148438 47.898438 43.078125 48.203125 43.003906 48.503906 C 42.917969 48.855469 42.835938 49.210938 42.757812 49.566406 C 42.691406 49.863281 42.628906 50.15625 42.566406 50.457031 C 42.519531 50.691406 42.472656 50.925781 42.429688 51.164062 C 42.367188 51.476562 42.3125 51.792969 42.253906 52.109375 C 42.21875 52.3125 42.179688 52.515625 42.148438 52.722656 C 42.0625 53.222656 41.988281 53.722656 41.914062 54.230469 C 41.890625 54.394531 41.871094 54.558594 41.847656 54.726562 C 41.796875 55.117188 41.746094 55.507812 41.703125 55.902344 C 41.679688 56.085938 41.660156 56.269531 41.640625 56.453125 C 41.59375 56.90625 41.550781 57.359375 41.507812 57.816406 C 41.5 57.914062 41.492188 58.011719 41.484375 58.109375 C 41.4375 58.667969 41.398438 59.226562 41.367188 59.789062 C 41.359375 59.929688 41.355469 60.074219 41.347656 60.214844 C 41.324219 60.660156 41.304688 61.101562 41.292969 61.546875 C 41.289062 61.660156 41.28125 61.769531 41.28125 61.878906 L 34.238281 61.878906 C 34.175781 61.878906 34.117188 61.882812 34.058594 61.890625 L 28.417969 61.890625 C 28.441406 61.5 28.464844 61.113281 28.496094 60.726562 C 28.5 60.660156 28.507812 60.597656 28.511719 60.535156 Z M 28.738281 68.851562 C 28.714844 68.695312 28.695312 68.542969 28.671875 68.386719 C 28.640625 68.132812 28.609375 67.871094 28.582031 67.613281 C 28.566406 67.480469 28.550781 67.351562 28.539062 67.21875 C 28.511719 66.917969 28.484375 66.621094 28.460938 66.320312 C 28.453125 66.191406 28.445312 66.0625 28.4375 65.933594 C 28.429688 65.820312 28.425781 65.707031 28.421875 65.597656 L 41.28125 65.597656 C 41.421875 70.960938 42.179688 76.128906 43.488281 80.847656 C 39.617188 80.398438 35.75 79.824219 31.894531 79.121094 C 31.878906 79.09375 31.867188 79.0625 31.855469 79.035156 C 31.746094 78.808594 31.636719 78.582031 31.53125 78.355469 C 31.519531 78.320312 31.503906 78.289062 31.488281 78.253906 C 31.273438 77.777344 31.066406 77.292969 30.871094 76.804688 C 30.863281 76.78125 30.851562 76.757812 30.84375 76.734375 C 30.757812 76.519531 30.675781 76.300781 30.59375 76.085938 C 30.558594 75.988281 30.523438 75.890625 30.488281 75.796875 C 30.410156 75.585938 30.335938 75.378906 30.265625 75.167969 C 30.230469 75.070312 30.199219 74.976562 30.167969 74.878906 C 30.042969 74.5 29.921875 74.121094 29.808594 73.738281 C 29.777344 73.625 29.742188 73.511719 29.710938 73.398438 C 29.65625 73.207031 29.605469 73.015625 29.554688 72.824219 C 29.515625 72.679688 29.476562 72.535156 29.441406 72.394531 C 29.394531 72.207031 29.347656 72.023438 29.304688 71.839844 C 29.265625 71.671875 29.226562 71.5 29.191406 71.332031 C 29.132812 71.066406 29.078125 70.800781 29.027344 70.535156 C 28.984375 70.332031 28.945312 70.125 28.910156 69.917969 C 28.882812 69.757812 28.855469 69.597656 28.828125 69.433594 C 28.796875 69.242188 28.765625 69.046875 28.738281 68.851562 Z M 95.25 86.792969 C 95.457031 86.515625 95.65625 86.234375 95.851562 85.949219 C 95.980469 85.765625 96.101562 85.582031 96.226562 85.398438 C 96.359375 85.203125 96.488281 85.003906 96.613281 84.804688 C 96.777344 84.550781 96.9375 84.296875 97.09375 84.039062 C 97.230469 83.816406 97.363281 83.597656 97.492188 83.375 C 97.597656 83.195312 97.699219 83.019531 97.800781 82.839844 C 97.960938 82.550781 98.121094 82.265625 98.273438 81.972656 C 98.453125 81.761719 98.582031 81.507812 98.652344 81.238281 C 98.753906 81.039062 98.851562 80.835938 98.949219 80.632812 C 99.027344 80.472656 99.105469 80.3125 99.179688 80.148438 C 99.34375 79.800781 99.5 79.449219 99.652344 79.09375 C 99.722656 78.921875 99.796875 78.753906 99.867188 78.582031 C 100 78.257812 100.128906 77.933594 100.253906 77.605469 C 100.320312 77.429688 100.386719 77.25 100.449219 77.074219 C 100.558594 76.777344 100.664062 76.480469 100.765625 76.179688 C 100.816406 76.023438 100.871094 75.863281 100.921875 75.707031 C 101.046875 75.320312 101.167969 74.929688 101.277344 74.539062 C 101.324219 74.386719 101.363281 74.234375 101.40625 74.082031 C 101.5 73.746094 101.585938 73.410156 101.667969 73.070312 C 101.699219 72.941406 101.734375 72.816406 101.761719 72.6875 C 101.859375 72.285156 101.945312 71.882812 102.027344 71.472656 C 102.054688 71.328125 102.085938 71.183594 102.113281 71.035156 C 102.195312 70.609375 102.269531 70.179688 102.335938 69.746094 C 102.355469 69.632812 102.371094 69.519531 102.386719 69.40625 C 102.441406 69.023438 102.492188 68.640625 102.535156 68.257812 C 102.550781 68.144531 102.5625 68.03125 102.574219 67.917969 C 102.625 67.464844 102.664062 67.007812 102.695312 66.550781 C 102.707031 66.429688 102.710938 66.3125 102.71875 66.191406 C 102.75 65.710938 102.773438 65.234375 102.785156 64.75 C 102.789062 64.722656 102.785156 64.695312 102.789062 64.667969 C 102.796875 64.355469 102.800781 64.046875 102.800781 63.734375 C 102.800781 63.597656 102.792969 63.464844 102.792969 63.328125 C 102.792969 63.238281 102.796875 63.152344 102.792969 63.0625 C 102.792969 62.910156 102.785156 62.757812 102.78125 62.605469 C 102.777344 62.488281 102.773438 62.371094 102.769531 62.257812 C 102.757812 61.875 102.738281 61.492188 102.710938 61.113281 C 102.703125 60.992188 102.691406 60.875 102.683594 60.753906 C 102.664062 60.496094 102.640625 60.238281 102.617188 59.980469 C 102.597656 59.792969 102.578125 59.609375 102.558594 59.425781 C 102.539062 59.246094 102.519531 59.066406 102.496094 58.890625 C 102.394531 58.078125 102.269531 57.273438 102.117188 56.480469 C 102.113281 56.457031 102.109375 56.4375 102.105469 56.414062 C 101.421875 52.820312 100.25 49.402344 98.648438 46.226562 C 98.578125 45.957031 98.445312 45.707031 98.265625 45.496094 C 94.8125 38.980469 89.566406 33.554688 83.191406 29.875 C 83.128906 29.839844 83.0625 29.808594 82.996094 29.777344 C 77.726562 26.769531 71.695312 24.953125 65.269531 24.703125 C 64.804688 24.683594 64.347656 24.679688 63.886719 24.675781 C 63.832031 24.675781 63.78125 24.671875 63.730469 24.671875 C 63.675781 24.671875 63.621094 24.675781 63.570312 24.675781 C 50.796875 24.730469 39.453125 30.9375 32.355469 40.488281 L 32.351562 40.484375 C 32.300781 40.550781 32.257812 40.617188 32.210938 40.683594 C 32.007812 40.960938 31.804688 41.242188 31.605469 41.527344 C 31.480469 41.710938 31.359375 41.894531 31.234375 42.078125 C 31.101562 42.273438 30.972656 42.472656 30.84375 42.671875 C 30.683594 42.925781 30.523438 43.179688 30.367188 43.4375 C 30.230469 43.65625 30.097656 43.878906 29.96875 44.101562 C 29.863281 44.28125 29.761719 44.457031 29.660156 44.636719 C 29.5 44.921875 29.339844 45.210938 29.1875 45.503906 C 29.007812 45.714844 28.878906 45.96875 28.808594 46.238281 C 28.707031 46.441406 28.609375 46.640625 28.511719 46.84375 C 28.433594 47.003906 28.355469 47.164062 28.277344 47.328125 C 28.117188 47.675781 27.960938 48.027344 27.808594 48.382812 C 27.738281 48.554688 27.664062 48.722656 27.59375 48.894531 C 27.460938 49.21875 27.332031 49.542969 27.207031 49.871094 C 27.140625 50.046875 27.074219 50.222656 27.011719 50.402344 C 26.902344 50.699219 26.796875 50.996094 26.695312 51.296875 C 26.644531 51.453125 26.589844 51.613281 26.539062 51.769531 C 26.414062 52.15625 26.292969 52.546875 26.179688 52.9375 C 26.136719 53.089844 26.097656 53.242188 26.054688 53.394531 C 25.960938 53.730469 25.875 54.066406 25.789062 54.40625 C 25.761719 54.535156 25.726562 54.660156 25.699219 54.785156 C 25.601562 55.1875 25.515625 55.59375 25.433594 56.003906 C 25.40625 56.148438 25.375 56.292969 25.347656 56.441406 C 25.265625 56.867188 25.191406 57.296875 25.125 57.730469 C 25.105469 57.84375 25.089844 57.957031 25.074219 58.070312 C 25.019531 58.453125 24.96875 58.835938 24.925781 59.21875 C 24.910156 59.332031 24.898438 59.445312 24.886719 59.554688 C 24.835938 60.011719 24.796875 60.464844 24.765625 60.925781 C 24.753906 61.046875 24.75 61.164062 24.742188 61.285156 C 24.710938 61.765625 24.6875 62.242188 24.675781 62.726562 C 24.671875 62.753906 24.671875 62.78125 24.671875 62.808594 C 24.664062 63.121094 24.660156 63.429688 24.660156 63.742188 C 24.660156 63.878906 24.667969 64.011719 24.667969 64.148438 C 24.667969 64.238281 24.664062 64.324219 24.667969 64.414062 C 24.667969 64.566406 24.675781 64.71875 24.679688 64.871094 C 24.683594 64.988281 24.6875 65.105469 24.691406 65.21875 C 24.703125 65.601562 24.722656 65.984375 24.75 66.363281 C 24.757812 66.484375 24.769531 66.601562 24.777344 66.722656 C 24.796875 66.980469 24.820312 67.238281 24.84375 67.496094 C 24.859375 67.683594 24.878906 67.867188 24.902344 68.050781 C 24.921875 68.230469 24.941406 68.410156 24.964844 68.585938 C 25.066406 69.398438 25.191406 70.203125 25.34375 70.996094 C 25.347656 71.019531 25.351562 71.039062 25.355469 71.0625 C 26.039062 74.65625 27.214844 78.074219 28.8125 81.25 C 28.882812 81.519531 29.015625 81.769531 29.195312 81.980469 C 32.648438 88.496094 37.894531 93.921875 44.269531 97.601562 C 44.332031 97.636719 44.398438 97.667969 44.464844 97.695312 C 49.734375 100.707031 55.765625 102.523438 62.191406 102.773438 C 62.652344 102.792969 63.113281 102.796875 63.574219 102.800781 C 63.628906 102.800781 63.679688 102.804688 63.730469 102.804688 C 63.785156 102.804688 63.839844 102.800781 63.890625 102.800781 C 76.664062 102.746094 88.007812 96.539062 95.105469 86.988281 L 95.109375 86.992188 C 95.15625 86.925781 95.203125 86.859375 95.25 86.792969 " fill-opacity="1" fill-rule="nonzero"/></g></svg>